<mxfile host="app.diagrams.net" modified="2020-12-04T20:20:02.633Z" agent="5.0 (Windows NT 10.0; Win64; x64) AppleWebKit/537.36 (KHTML, like Gecko) Chrome/87.0.4280.88 Safari/537.36" etag="EqBn-gPXnujO9Orm_s_W" version="13.10.6" type="github">
  <diagram id="x-4w2Qwq1MfwNayGUott" name="Page-1">
    <mxGraphModel dx="1422" dy="762" grid="1" gridSize="10" guides="1" tooltips="1" connect="1" arrows="1" fold="1" page="1" pageScale="1" pageWidth="850" pageHeight="1100" math="0" shadow="0">
      <root>
        <mxCell id="0" />
        <mxCell id="1" parent="0" />
        <mxCell id="oFh48oqUhFVDz0avOJlg-3" value="" style="edgeStyle=orthogonalEdgeStyle;rounded=0;orthogonalLoop=1;jettySize=auto;html=1;" edge="1" parent="1" source="oFh48oqUhFVDz0avOJlg-1" target="oFh48oqUhFVDz0avOJlg-2">
          <mxGeometry relative="1" as="geometry" />
        </mxCell>
        <mxCell id="oFh48oqUhFVDz0avOJlg-1" value="Start" style="ellipse;whiteSpace=wrap;html=1;" vertex="1" parent="1">
          <mxGeometry x="40" y="40" width="90" height="50" as="geometry" />
        </mxCell>
        <mxCell id="oFh48oqUhFVDz0avOJlg-5" value="" style="edgeStyle=orthogonalEdgeStyle;rounded=0;orthogonalLoop=1;jettySize=auto;html=1;" edge="1" parent="1" source="oFh48oqUhFVDz0avOJlg-2" target="oFh48oqUhFVDz0avOJlg-4">
          <mxGeometry relative="1" as="geometry" />
        </mxCell>
        <mxCell id="oFh48oqUhFVDz0avOJlg-2" value="User" style="whiteSpace=wrap;html=1;" vertex="1" parent="1">
          <mxGeometry x="180" y="37.5" width="65" height="55" as="geometry" />
        </mxCell>
        <mxCell id="oFh48oqUhFVDz0avOJlg-8" style="edgeStyle=orthogonalEdgeStyle;rounded=0;orthogonalLoop=1;jettySize=auto;html=1;exitX=1;exitY=0.5;exitDx=0;exitDy=0;entryX=0;entryY=0.5;entryDx=0;entryDy=0;" edge="1" parent="1" source="oFh48oqUhFVDz0avOJlg-6" target="oFh48oqUhFVDz0avOJlg-7">
          <mxGeometry relative="1" as="geometry" />
        </mxCell>
        <mxCell id="oFh48oqUhFVDz0avOJlg-4" value="Signed up?" style="rhombus;whiteSpace=wrap;html=1;" vertex="1" parent="1">
          <mxGeometry x="290" y="27.5" width="80" height="75" as="geometry" />
        </mxCell>
        <mxCell id="oFh48oqUhFVDz0avOJlg-24" value="" style="edgeStyle=orthogonalEdgeStyle;rounded=0;orthogonalLoop=1;jettySize=auto;html=1;" edge="1" parent="1" source="oFh48oqUhFVDz0avOJlg-7" target="oFh48oqUhFVDz0avOJlg-23">
          <mxGeometry relative="1" as="geometry" />
        </mxCell>
        <mxCell id="oFh48oqUhFVDz0avOJlg-41" style="edgeStyle=orthogonalEdgeStyle;rounded=0;orthogonalLoop=1;jettySize=auto;html=1;entryX=0;entryY=0.5;entryDx=0;entryDy=0;" edge="1" parent="1" source="oFh48oqUhFVDz0avOJlg-29" target="oFh48oqUhFVDz0avOJlg-18">
          <mxGeometry relative="1" as="geometry">
            <mxPoint x="630" y="65" as="targetPoint" />
          </mxGeometry>
        </mxCell>
        <mxCell id="oFh48oqUhFVDz0avOJlg-7" value="Login" style="rounded=1;whiteSpace=wrap;html=1;" vertex="1" parent="1">
          <mxGeometry x="440" y="40" width="80" height="50" as="geometry" />
        </mxCell>
        <mxCell id="oFh48oqUhFVDz0avOJlg-77" style="edgeStyle=orthogonalEdgeStyle;rounded=0;orthogonalLoop=1;jettySize=auto;html=1;entryX=0.5;entryY=0;entryDx=0;entryDy=0;" edge="1" parent="1" source="oFh48oqUhFVDz0avOJlg-18" target="oFh48oqUhFVDz0avOJlg-20">
          <mxGeometry relative="1" as="geometry">
            <mxPoint x="780" y="62.5" as="targetPoint" />
            <Array as="points">
              <mxPoint x="780" y="63" />
            </Array>
          </mxGeometry>
        </mxCell>
        <mxCell id="oFh48oqUhFVDz0avOJlg-18" value="Forgot pass?" style="rhombus;whiteSpace=wrap;html=1;" vertex="1" parent="1">
          <mxGeometry x="640" y="22.5" width="80" height="80" as="geometry" />
        </mxCell>
        <mxCell id="oFh48oqUhFVDz0avOJlg-25" style="edgeStyle=orthogonalEdgeStyle;rounded=0;orthogonalLoop=1;jettySize=auto;html=1;exitX=0.5;exitY=1;exitDx=0;exitDy=0;entryX=1;entryY=0.5;entryDx=0;entryDy=0;" edge="1" parent="1" source="oFh48oqUhFVDz0avOJlg-20" target="oFh48oqUhFVDz0avOJlg-23">
          <mxGeometry relative="1" as="geometry" />
        </mxCell>
        <mxCell id="oFh48oqUhFVDz0avOJlg-20" value="Pass recovery" style="shape=process;whiteSpace=wrap;html=1;backgroundOutline=1;" vertex="1" parent="1">
          <mxGeometry x="720" y="105" width="120" height="60" as="geometry" />
        </mxCell>
        <mxCell id="oFh48oqUhFVDz0avOJlg-22" value="Provide email" style="text;html=1;align=center;verticalAlign=middle;resizable=0;points=[];autosize=1;" vertex="1" parent="1">
          <mxGeometry x="720" y="40" width="90" height="20" as="geometry" />
        </mxCell>
        <mxCell id="oFh48oqUhFVDz0avOJlg-23" value="Homepage" style="rounded=1;whiteSpace=wrap;html=1;" vertex="1" parent="1">
          <mxGeometry x="435" y="170" width="90" height="50" as="geometry" />
        </mxCell>
        <mxCell id="oFh48oqUhFVDz0avOJlg-27" value="" style="endArrow=none;html=1;" edge="1" parent="1" source="oFh48oqUhFVDz0avOJlg-28">
          <mxGeometry width="50" height="50" relative="1" as="geometry">
            <mxPoint x="490" y="130" as="sourcePoint" />
            <mxPoint x="610" y="105" as="targetPoint" />
            <Array as="points">
              <mxPoint x="610" y="130" />
            </Array>
          </mxGeometry>
        </mxCell>
        <mxCell id="oFh48oqUhFVDz0avOJlg-59" style="edgeStyle=orthogonalEdgeStyle;rounded=0;orthogonalLoop=1;jettySize=auto;html=1;exitX=0;exitY=0.5;exitDx=0;exitDy=0;" edge="1" parent="1" source="oFh48oqUhFVDz0avOJlg-33" target="oFh48oqUhFVDz0avOJlg-45">
          <mxGeometry relative="1" as="geometry" />
        </mxCell>
        <mxCell id="oFh48oqUhFVDz0avOJlg-60" style="edgeStyle=orthogonalEdgeStyle;rounded=0;orthogonalLoop=1;jettySize=auto;html=1;exitX=1;exitY=0.5;exitDx=0;exitDy=0;entryX=0.575;entryY=0.1;entryDx=0;entryDy=0;entryPerimeter=0;" edge="1" parent="1" source="oFh48oqUhFVDz0avOJlg-33" target="oFh48oqUhFVDz0avOJlg-46">
          <mxGeometry relative="1" as="geometry">
            <Array as="points">
              <mxPoint x="183" y="165" />
            </Array>
          </mxGeometry>
        </mxCell>
        <mxCell id="oFh48oqUhFVDz0avOJlg-33" value="Sign Up" style="rounded=1;whiteSpace=wrap;html=1;" vertex="1" parent="1">
          <mxGeometry x="70" y="150" width="100" height="30" as="geometry" />
        </mxCell>
        <mxCell id="oFh48oqUhFVDz0avOJlg-34" style="edgeStyle=orthogonalEdgeStyle;rounded=0;orthogonalLoop=1;jettySize=auto;html=1;exitX=0.5;exitY=1;exitDx=0;exitDy=0;entryX=0.5;entryY=0;entryDx=0;entryDy=0;" edge="1" parent="1" source="oFh48oqUhFVDz0avOJlg-4" target="oFh48oqUhFVDz0avOJlg-31">
          <mxGeometry relative="1" as="geometry">
            <mxPoint x="90" y="150" as="targetPoint" />
            <mxPoint x="330" y="102.5" as="sourcePoint" />
          </mxGeometry>
        </mxCell>
        <mxCell id="oFh48oqUhFVDz0avOJlg-58" style="edgeStyle=orthogonalEdgeStyle;rounded=0;orthogonalLoop=1;jettySize=auto;html=1;entryX=0.5;entryY=0;entryDx=0;entryDy=0;" edge="1" parent="1" source="oFh48oqUhFVDz0avOJlg-31" target="oFh48oqUhFVDz0avOJlg-33">
          <mxGeometry relative="1" as="geometry" />
        </mxCell>
        <mxCell id="oFh48oqUhFVDz0avOJlg-31" value="No" style="text;html=1;align=center;verticalAlign=middle;resizable=0;points=[];autosize=1;" vertex="1" parent="1">
          <mxGeometry x="315" y="120" width="30" height="20" as="geometry" />
        </mxCell>
        <mxCell id="oFh48oqUhFVDz0avOJlg-6" value="yes" style="text;html=1;align=center;verticalAlign=middle;resizable=0;points=[];autosize=1;" vertex="1" parent="1">
          <mxGeometry x="385" y="55" width="30" height="20" as="geometry" />
        </mxCell>
        <mxCell id="oFh48oqUhFVDz0avOJlg-36" style="edgeStyle=orthogonalEdgeStyle;rounded=0;orthogonalLoop=1;jettySize=auto;html=1;exitX=1;exitY=0.5;exitDx=0;exitDy=0;entryX=0;entryY=0.5;entryDx=0;entryDy=0;" edge="1" parent="1" source="oFh48oqUhFVDz0avOJlg-4" target="oFh48oqUhFVDz0avOJlg-6">
          <mxGeometry relative="1" as="geometry">
            <mxPoint x="370" y="65" as="sourcePoint" />
            <mxPoint x="440" y="65" as="targetPoint" />
          </mxGeometry>
        </mxCell>
        <mxCell id="oFh48oqUhFVDz0avOJlg-28" value="No" style="text;html=1;align=center;verticalAlign=middle;resizable=0;points=[];autosize=1;" vertex="1" parent="1">
          <mxGeometry x="535" y="120" width="30" height="20" as="geometry" />
        </mxCell>
        <mxCell id="oFh48oqUhFVDz0avOJlg-37" value="" style="endArrow=none;html=1;" edge="1" parent="1" target="oFh48oqUhFVDz0avOJlg-28">
          <mxGeometry width="50" height="50" relative="1" as="geometry">
            <mxPoint x="490" y="130" as="sourcePoint" />
            <mxPoint x="610" y="105" as="targetPoint" />
            <Array as="points" />
          </mxGeometry>
        </mxCell>
        <mxCell id="oFh48oqUhFVDz0avOJlg-29" value="Yes" style="text;html=1;align=center;verticalAlign=middle;resizable=0;points=[];autosize=1;" vertex="1" parent="1">
          <mxGeometry x="550" y="52.5" width="40" height="20" as="geometry" />
        </mxCell>
        <mxCell id="oFh48oqUhFVDz0avOJlg-42" style="edgeStyle=orthogonalEdgeStyle;rounded=0;orthogonalLoop=1;jettySize=auto;html=1;" edge="1" parent="1" source="oFh48oqUhFVDz0avOJlg-7" target="oFh48oqUhFVDz0avOJlg-29">
          <mxGeometry relative="1" as="geometry">
            <mxPoint x="630" y="65" as="targetPoint" />
            <mxPoint x="520" y="65" as="sourcePoint" />
          </mxGeometry>
        </mxCell>
        <mxCell id="oFh48oqUhFVDz0avOJlg-55" value="" style="edgeStyle=orthogonalEdgeStyle;rounded=0;orthogonalLoop=1;jettySize=auto;html=1;" edge="1" parent="1" source="oFh48oqUhFVDz0avOJlg-45" target="oFh48oqUhFVDz0avOJlg-54">
          <mxGeometry relative="1" as="geometry" />
        </mxCell>
        <mxCell id="oFh48oqUhFVDz0avOJlg-45" value="Student" style="text;html=1;align=center;verticalAlign=middle;resizable=0;points=[];autosize=1;" vertex="1" parent="1">
          <mxGeometry x="20" y="210" width="60" height="20" as="geometry" />
        </mxCell>
        <mxCell id="oFh48oqUhFVDz0avOJlg-57" value="" style="edgeStyle=orthogonalEdgeStyle;rounded=0;orthogonalLoop=1;jettySize=auto;html=1;" edge="1" parent="1" source="oFh48oqUhFVDz0avOJlg-46" target="oFh48oqUhFVDz0avOJlg-56">
          <mxGeometry relative="1" as="geometry" />
        </mxCell>
        <mxCell id="oFh48oqUhFVDz0avOJlg-46" value="Tutor" style="text;html=1;align=center;verticalAlign=middle;resizable=0;points=[];autosize=1;" vertex="1" parent="1">
          <mxGeometry x="160" y="210" width="40" height="20" as="geometry" />
        </mxCell>
        <mxCell id="oFh48oqUhFVDz0avOJlg-65" style="edgeStyle=orthogonalEdgeStyle;rounded=0;orthogonalLoop=1;jettySize=auto;html=1;exitX=0.5;exitY=1;exitDx=0;exitDy=0;entryX=0.5;entryY=0;entryDx=0;entryDy=0;" edge="1" parent="1" source="oFh48oqUhFVDz0avOJlg-54" target="oFh48oqUhFVDz0avOJlg-62">
          <mxGeometry relative="1" as="geometry" />
        </mxCell>
        <mxCell id="oFh48oqUhFVDz0avOJlg-54" value="Create profile" style="rounded=1;whiteSpace=wrap;html=1;" vertex="1" parent="1">
          <mxGeometry x="5" y="260" width="90" height="30" as="geometry" />
        </mxCell>
        <mxCell id="oFh48oqUhFVDz0avOJlg-64" style="edgeStyle=orthogonalEdgeStyle;rounded=0;orthogonalLoop=1;jettySize=auto;html=1;exitX=0.5;exitY=1;exitDx=0;exitDy=0;entryX=0.5;entryY=0;entryDx=0;entryDy=0;" edge="1" parent="1" source="oFh48oqUhFVDz0avOJlg-56" target="oFh48oqUhFVDz0avOJlg-63">
          <mxGeometry relative="1" as="geometry" />
        </mxCell>
        <mxCell id="oFh48oqUhFVDz0avOJlg-56" value="Create profile" style="rounded=1;whiteSpace=wrap;html=1;" vertex="1" parent="1">
          <mxGeometry x="135" y="260" width="90" height="30" as="geometry" />
        </mxCell>
        <mxCell id="oFh48oqUhFVDz0avOJlg-68" style="edgeStyle=orthogonalEdgeStyle;rounded=0;orthogonalLoop=1;jettySize=auto;html=1;exitX=0.5;exitY=1;exitDx=0;exitDy=0;entryX=0;entryY=0.5;entryDx=0;entryDy=0;" edge="1" parent="1" source="oFh48oqUhFVDz0avOJlg-62" target="oFh48oqUhFVDz0avOJlg-23">
          <mxGeometry relative="1" as="geometry">
            <Array as="points">
              <mxPoint x="50" y="470" />
              <mxPoint x="265" y="470" />
              <mxPoint x="265" y="195" />
            </Array>
          </mxGeometry>
        </mxCell>
        <mxCell id="oFh48oqUhFVDz0avOJlg-62" value="Add courses" style="rounded=1;whiteSpace=wrap;html=1;" vertex="1" parent="1">
          <mxGeometry x="5" y="320" width="90" height="30" as="geometry" />
        </mxCell>
        <mxCell id="oFh48oqUhFVDz0avOJlg-67" style="edgeStyle=orthogonalEdgeStyle;rounded=0;orthogonalLoop=1;jettySize=auto;html=1;exitX=0.5;exitY=1;exitDx=0;exitDy=0;entryX=0.5;entryY=0;entryDx=0;entryDy=0;" edge="1" parent="1" source="oFh48oqUhFVDz0avOJlg-63" target="oFh48oqUhFVDz0avOJlg-66">
          <mxGeometry relative="1" as="geometry" />
        </mxCell>
        <mxCell id="oFh48oqUhFVDz0avOJlg-63" value="Add courses" style="rounded=1;whiteSpace=wrap;html=1;" vertex="1" parent="1">
          <mxGeometry x="132.5" y="320" width="95" height="30" as="geometry" />
        </mxCell>
        <mxCell id="oFh48oqUhFVDz0avOJlg-66" value="Availability/timeslots" style="rounded=1;whiteSpace=wrap;html=1;" vertex="1" parent="1">
          <mxGeometry x="122.5" y="380" width="115" height="50" as="geometry" />
        </mxCell>
        <mxCell id="oFh48oqUhFVDz0avOJlg-70" value="" style="endArrow=none;html=1;" edge="1" parent="1">
          <mxGeometry width="50" height="50" relative="1" as="geometry">
            <mxPoint x="180" y="470" as="sourcePoint" />
            <mxPoint x="180" y="430" as="targetPoint" />
          </mxGeometry>
        </mxCell>
        <mxCell id="oFh48oqUhFVDz0avOJlg-73" value="Profile" style="rounded=1;whiteSpace=wrap;html=1;" vertex="1" parent="1">
          <mxGeometry x="355" y="280" width="90" height="30" as="geometry" />
        </mxCell>
        <mxCell id="oFh48oqUhFVDz0avOJlg-74" value="" style="endArrow=classic;startArrow=classic;html=1;exitX=0.5;exitY=0;exitDx=0;exitDy=0;" edge="1" parent="1" source="oFh48oqUhFVDz0avOJlg-73">
          <mxGeometry width="50" height="50" relative="1" as="geometry">
            <mxPoint x="395" y="270" as="sourcePoint" />
            <mxPoint x="440" y="220" as="targetPoint" />
            <Array as="points" />
          </mxGeometry>
        </mxCell>
        <mxCell id="oFh48oqUhFVDz0avOJlg-75" value="" style="endArrow=classic;startArrow=classic;html=1;" edge="1" parent="1">
          <mxGeometry width="50" height="50" relative="1" as="geometry">
            <mxPoint x="560" y="280" as="sourcePoint" />
            <mxPoint x="520" y="220" as="targetPoint" />
          </mxGeometry>
        </mxCell>
        <mxCell id="oFh48oqUhFVDz0avOJlg-76" value="Search" style="rounded=1;whiteSpace=wrap;html=1;" vertex="1" parent="1">
          <mxGeometry x="520" y="280" width="90" height="30" as="geometry" />
        </mxCell>
      </root>
    </mxGraphModel>
  </diagram>
</mxfile>
